<svg width="67" height="59" viewBox="0 0 67 59" fill="none" xmlns="http://www.w3.org/2000/svg">
<g clip-path="url(#clip0_7008_289)">
<path d="M40.4435 0H40.6813C41.4097 0.0441281 42.0477 0.641281 42.1459 1.36299C42.2727 2.08754 41.8398 2.86263 41.1491 3.12384C40.4827 3.39929 39.656 3.13238 39.2673 2.52811C38.9063 2.00427 38.8977 1.2669 39.2466 0.73452C39.5051 0.320996 39.9601 0.0505338 40.4435 0Z" fill="white"/>
<path d="M35.0451 0.370106C35.7941 0.173665 36.625 0.629893 36.8863 1.35231C37.0949 1.88114 37.0009 2.51601 36.6435 2.95801C36.3317 3.3573 35.8197 3.59075 35.3142 3.55587C34.7944 3.52954 34.3053 3.22135 34.0461 2.77366C33.7791 2.32669 33.7471 1.7516 33.9607 1.27829C34.1565 0.829893 34.5673 0.481138 35.0451 0.370106Z" fill="white"/>
<path d="M45.592 0.605693C46.0427 0.485408 46.5447 0.582205 46.9192 0.861921C47.3585 1.18078 47.6127 1.7331 47.5728 2.27473C47.5437 2.8185 47.219 3.33665 46.7391 3.59502C46.2834 3.8484 45.7003 3.84982 45.2439 3.59786C44.7191 3.32028 44.3838 2.73309 44.4008 2.14021C44.4016 1.43986 44.9092 0.7758 45.592 0.605693Z" fill="white"/>
<path d="M30.2034 1.65267C30.6513 1.56157 31.1354 1.67972 31.49 1.96797C31.9023 2.29324 32.1337 2.82847 32.0931 3.35089C32.0625 3.88256 31.7485 4.38861 31.2835 4.64911C30.8157 4.921 30.2063 4.92171 29.7378 4.65053C29.2258 4.36655 28.9019 3.78505 28.9225 3.20071C28.9246 2.47046 29.4821 1.78505 30.2034 1.65267Z" fill="white"/>
<path d="M50.9335 2.16797C51.3693 2.05694 51.8506 2.14591 52.2166 2.40712C52.6545 2.71032 52.9186 3.242 52.9015 3.77438C52.8951 4.33595 52.5719 4.88185 52.0792 5.15303C51.6092 5.42136 50.9998 5.4178 50.5334 5.14377C49.9624 4.82278 49.6377 4.1331 49.7452 3.48897C49.8313 2.86406 50.3184 2.31602 50.9335 2.16797Z" fill="white"/>
<path d="M56.7606 3.11103C57.165 3.77936 57.4057 4.52954 57.6649 5.26263C58.5349 7.89324 59.2185 10.5815 59.9063 13.2641C61.6393 14.5794 62.8397 16.4883 63.5596 18.5196C64.5101 21.2007 64.7614 24.0747 64.7323 26.9018C64.7073 28.7559 64.5507 30.6057 64.3157 32.4441C64.1833 33.4456 64.0601 34.4491 63.8686 35.4413C63.1637 39.3231 62.6674 43.2477 62.5086 47.1915C62.4545 48.4939 62.4289 49.7979 62.4318 51.1018C62.4496 52.0975 62.3791 53.0925 62.3484 54.0883C62.3057 54.9829 62.3499 55.9174 61.9739 56.7537C61.7575 57.2797 61.3495 57.7267 60.8304 57.9637C60.3349 58.2007 59.7767 58.2505 59.2355 58.2434C58.4153 58.2947 57.5972 58.3701 56.7784 58.427C57.5495 58.1053 58.3078 57.7523 59.0753 57.4214C59.3402 57.3217 59.4819 57.0569 59.6471 56.8441C60.2295 55.9189 60.4025 54.8064 60.4666 53.7338C60.5556 51.7929 60.268 49.8534 59.818 47.9701C60.0736 46.0093 60.436 44.0626 60.6944 42.1025C60.9337 40.3445 61.1316 38.5794 61.2292 36.8078C60.6539 37.2833 60.1006 37.8036 59.4378 38.1573C59.8828 36.9616 60.379 35.7843 60.8924 34.6164C61.2619 33.8434 61.4563 33.0028 61.6471 32.1715C62.1662 29.7217 62.3392 27.205 62.2502 24.7046C62.1712 22.8242 61.9376 20.9388 61.4022 19.1302C60.9664 17.6897 60.3299 16.2626 59.2633 15.1758C59.1487 16.269 59.0397 17.363 58.9215 18.4555C57.9269 17.7651 57.0077 16.953 56.2729 15.9865C55.5922 15.0939 55.081 14.069 54.8097 12.9786C54.4302 11.4918 54.4886 9.92242 54.7955 8.42847C55.1785 6.56939 55.9033 4.79786 56.7606 3.11103Z" fill="white"/>
<path d="M25.6629 3.96726C26.1364 3.85694 26.6562 3.98505 27.025 4.30249C27.4066 4.62206 27.6231 5.12527 27.5953 5.62206C27.5754 6.17295 27.2514 6.70178 26.7665 6.96512C26.298 7.22918 25.6921 7.2242 25.2286 6.95089C24.7359 6.6726 24.4191 6.11886 24.4219 5.55445C24.4027 4.82206 24.9438 4.11957 25.6629 3.96726Z" fill="white"/>
<path d="M30.7481 6.46548C33.7955 5.22562 37.1305 4.84555 40.4008 4.94377C41.4859 4.96726 42.5653 5.08968 43.6475 5.16512C45.2474 5.30889 46.8181 5.68825 48.3404 6.19217C49.4689 6.57153 50.5875 6.99003 51.6598 7.51032C52.5427 7.88968 53.3394 8.43558 54.1055 9.00996C53.2447 8.62206 52.334 8.36583 51.4405 8.06761C49.6989 7.4605 47.9374 6.86548 46.1061 6.60071C44.4884 6.358 42.8473 6.45765 41.2217 6.54377C38.2071 6.72526 35.1853 7.30889 32.4277 8.57224C29.4259 9.94092 26.7694 12.0185 24.6213 14.5139C23.7718 15.4705 22.9559 16.4562 22.1577 17.4555C20.8711 19.0818 19.5582 20.6883 18.1819 22.2406C16.7222 23.8391 15.3424 25.5125 13.8151 27.0498C12.9678 27.8171 12.1761 28.6512 11.254 29.3331C10.233 30.1438 9.16141 30.9082 7.97877 31.4669C6.26212 32.3267 4.48138 33.0541 2.67929 33.7146C1.80494 34.0498 0.921339 34.3744 0 34.5573V34.5495C0.47847 34.2968 1.00749 34.1665 1.50803 33.9673C2.324 33.6463 3.11931 33.2733 3.89041 32.8555C7.65908 30.7964 10.8225 27.7808 13.4961 24.4505C14.3434 23.3402 15.143 22.195 15.9191 21.0342C17.4001 18.847 18.8419 16.6313 20.4282 14.5181C21.655 12.874 22.9566 11.2633 24.5337 9.9395C25.3432 9.2484 26.2518 8.68612 27.1745 8.16085C28.3265 7.51886 29.5113 6.92882 30.7481 6.46548Z" fill="white"/>
<path d="M65.6664 5.63986C66.0979 5.34662 66.5351 5.05979 66.9836 4.79146C66.9316 5.92171 66.6255 7.02064 66.3592 8.1153C65.7689 10.3815 65.0797 12.6199 64.3748 14.8527C63.3972 13.2932 62.164 11.8897 60.6973 10.773C61.8273 8.63132 63.697 6.99502 65.6664 5.63986Z" fill="white"/>
<path d="M21.8893 7.0185C22.345 6.92669 22.8377 7.05124 23.193 7.35018C23.5867 7.67117 23.8096 8.18505 23.7782 8.69181C23.7562 9.22989 23.4436 9.74519 22.9744 10.0114C22.5237 10.2762 21.9391 10.2897 21.477 10.047C20.9487 9.78078 20.602 9.20356 20.6055 8.61352C20.5856 7.86619 21.1509 7.15302 21.8893 7.0185Z" fill="white"/>
<path d="M18.8882 10.4776C19.3353 10.3872 19.8188 10.5075 20.1726 10.7964C20.5628 11.1061 20.7914 11.6043 20.7757 12.1018C20.7693 12.6427 20.4702 13.1694 20.0067 13.4491C19.5475 13.7359 18.938 13.7559 18.4609 13.5004C17.9469 13.2356 17.6065 12.6754 17.6008 12.0982C17.5695 11.3416 18.1384 10.6114 18.8882 10.4776Z" fill="white"/>
<path d="M16.3313 14.4854C16.7913 14.3573 17.3103 14.4719 17.672 14.7851C18.0238 15.0811 18.221 15.5502 18.1804 16.0085C18.1462 16.4826 17.8607 16.9274 17.447 17.1594C16.9956 17.4221 16.4032 17.4149 15.959 17.1416C15.4961 16.869 15.2099 16.3267 15.2548 15.7907C15.289 15.1843 15.7446 14.637 16.3313 14.4854Z" fill="white"/>
<path d="M14.2651 18.2576C14.7372 18.1167 15.2811 18.269 15.6087 18.6377C15.9504 19.0036 16.0458 19.5722 15.8436 20.0299C15.6158 20.5858 14.9743 20.926 14.3854 20.8021C13.8016 20.7032 13.3317 20.1658 13.316 19.5737C13.279 18.9843 13.6969 18.4114 14.2651 18.2576Z" fill="white"/>
<path d="M38.5353 24.4982C40.0419 22.5466 42.1018 21.1089 44.2485 19.9381C42.7198 21.916 41.466 24.1587 40.9141 26.6135C40.5176 28.3687 40.524 30.2206 40.9989 31.9594C41.5372 33.968 42.6607 35.7822 44.0577 37.3082C45.1143 38.4641 46.3226 39.4754 47.607 40.3694C46.947 40.3288 46.2855 40.3061 45.6248 40.2719C46.8366 44.4975 48.4792 48.6783 51.13 52.2221C51.0076 53.4071 51.1429 54.6335 51.6235 55.7303C51.9681 56.5238 52.4822 57.2399 53.1044 57.8391C51.9004 57.2242 50.6843 56.6335 49.4761 56.0278C49.1991 55.8819 48.8951 55.7751 48.6651 55.5566C47.9751 54.9701 47.3422 54.247 47.1036 53.3537C46.9214 52.6982 47.0275 51.9893 47.3208 51.3829C45.7992 47.6093 44.2613 43.8427 42.7077 40.0819C42.6571 39.9708 42.6265 39.8406 42.5204 39.7687C40.7717 38.3922 39.1897 36.763 38.0561 34.837C37.51 33.8968 37.0707 32.8854 36.8322 31.8221C36.6962 30.8584 36.5574 29.8783 36.7105 28.9068C36.7475 28.3039 36.9297 27.7253 37.122 27.1573C37.3655 26.1701 37.9387 25.3061 38.5353 24.4982Z" fill="white"/>
<path d="M12.4765 21.5117C13.0504 21.3886 13.657 21.8391 13.7069 22.4228C13.7888 22.9929 13.316 23.5594 12.7414 23.5851C12.1924 23.6384 11.6627 23.1879 11.6242 22.6391C11.563 22.1167 11.9582 21.5957 12.4765 21.5117Z" fill="white"/>
<path d="M10.7058 24.4534C11.1743 24.3103 11.6969 24.7032 11.6912 25.1922C11.7189 25.6762 11.222 26.0925 10.7492 25.9765C10.285 25.8968 9.98948 25.3473 10.1817 24.916C10.2714 24.6911 10.4715 24.5139 10.7058 24.4534Z" fill="white"/>
<path d="M55.7275 27.6612C57.0952 29.1651 58.4659 30.6662 59.8315 32.1722C59.3495 33.079 58.8404 33.9708 58.3555 34.8754C57.6086 34.126 57.1928 33.126 56.8382 32.1473C56.3291 30.6904 56.0087 29.1758 55.7275 27.6612Z" fill="white"/>
</g>
<defs>
<clipPath id="clip0_7008_289">
<rect width="67" height="59" fill="white"/>
</clipPath>
</defs>
</svg>
